<svg width="26" height="24" viewBox="0 0 26 24" fill="none" xmlns="http://www.w3.org/2000/svg">
<path fill-rule="evenodd" clip-rule="evenodd" d="M0 2.37549C0 1.27092 0.89543 0.375488 2 0.375488H20.9416C22.0462 0.375488 22.9416 1.27092 22.9416 2.37549V4.677H25.8093V7.5447H22.9416V10.4124H25.8093V13.2801H22.9416V16.1479H25.8093V19.0156H22.9416V21.3171C22.9416 22.4217 22.0462 23.3171 20.9416 23.3171H2C0.895428 23.3171 0 22.4217 0 21.3171V2.37549ZM4.30154 4.677H10.6742V19.0155H4.30154V4.677ZM13.8606 4.677H18.6401V8.65992H13.8606V4.677ZM18.6401 11.0497H13.8606V19.0155H18.6401V11.0497Z" fill="#464646"/>
</svg>
