<svg width="40" height="40" viewBox="0 0 25 25" fill="none" xmlns="http://www.w3.org/2000/svg">
<path d="M0 2.31714C0 1.21257 0.895431 0.317139 2 0.317139H22.3755C23.48 0.317139 24.3755 1.21257 24.3755 2.31714V22.6926C24.3755 23.7972 23.48 24.6926 22.3755 24.6926H2C0.895429 24.6926 0 23.7972 0 22.6926V2.31714Z" fill="white"/>
<path fill-rule="evenodd" clip-rule="evenodd" d="M21 17.7885C20.5818 17.8474 20.1544 17.8778 19.7199 17.8778C14.6948 17.8778 10.6211 13.8042 10.6211 8.77901C10.6211 6.7706 11.2718 4.91417 12.3739 3.40906C7.95487 4.03127 4.55518 7.82789 4.55518 12.4185C4.55518 17.4437 8.62886 21.5174 13.654 21.5174C16.6707 21.5174 19.3446 20.0493 21 17.7885Z" fill="#5F79D3"/>
</svg>
