<svg width="40" height="40" viewBox="0 0 25 25" fill="none" xmlns="http://www.w3.org/2000/svg">
<path d="M0 2C0 0.895429 0.895431 0 2 0H22.3755C23.48 0 24.3755 0.895431 24.3755 2V22.3755C24.3755 23.48 23.48 24.3755 22.3755 24.3755H2C0.895429 24.3755 0 23.48 0 22.3755V2Z" fill="#292929"/>
<path d="M17.0001 12.0001C17.0001 14.7615 14.7615 17.0001 12.0001 17.0001C9.23861 17.0001 7 14.7615 7 12.0001C7 9.23861 9.23861 7 12.0001 7C14.7615 7 17.0001 9.23861 17.0001 12.0001Z" fill="white"/>
<path fill-rule="evenodd" clip-rule="evenodd" d="M11.25 4.89605C11.4965 4.87033 11.7467 4.85714 12 4.85714C12.2533 4.85714 12.5035 4.87033 12.75 4.89605V2H11.25V4.89605ZM16.4927 6.44666C16.8822 6.76216 17.2378 7.11781 17.5533 7.50732L19.6732 5.38747L18.6125 4.32681L16.4927 6.44666ZM19.104 11.25C19.1297 11.4965 19.1429 11.7467 19.1429 12C19.1429 12.2533 19.1297 12.5035 19.104 12.75H22V11.25H19.104ZM17.5533 16.4927C17.2378 16.8822 16.8822 17.2378 16.4927 17.5533L18.6125 19.6732L19.6732 18.6125L17.5533 16.4927ZM12.75 19.104C12.5035 19.1297 12.2533 19.1429 12 19.1429C11.7467 19.1429 11.4965 19.1297 11.25 19.104V22H12.75V19.104ZM7.50732 17.5533C7.11781 17.2378 6.76216 16.8822 6.44666 16.4927L4.32681 18.6125L5.38747 19.6732L7.50732 17.5533ZM4.89605 12.75C4.87033 12.5035 4.85714 12.2533 4.85714 12C4.85714 11.7467 4.87033 11.4965 4.89605 11.25H2V12.75H4.89605ZM7.50732 6.44666C7.11781 6.76216 6.76216 7.11781 6.44666 7.50732L4.32681 5.38747L5.38747 4.32681L7.50732 6.44666Z" fill="white"/>
</svg>
