<svg width="50" height="50" viewBox="0 0 162 162" fill="none" xmlns="http://www.w3.org/2000/svg">
<path fill-rule="evenodd" clip-rule="evenodd" d="M98.2796 0H63.7196V11.52H98.2796V0ZM81 161.28C120.765 161.28 153 129.044 153 89.28C153 49.5155 120.765 17.28 81 17.28C41.2355 17.28 9 49.5155 9 89.28C9 129.044 41.2355 161.28 81 161.28ZM84.4995 43.1999C84.4995 41.2669 82.9325 39.6999 80.9995 39.6999C79.0665 39.6999 77.4995 41.2669 77.4995 43.1999V89.2496L77.4994 89.28C77.4994 91.213 79.0664 92.78 80.9994 92.78H127.079C129.012 92.78 130.579 91.213 130.579 89.28C130.579 87.3471 129.012 85.78 127.079 85.78H84.4995V43.1999Z" fill="#5F79D3"/>
<path fill-rule="evenodd" clip-rule="evenodd" d="M121.629 13.3174L119.207 0.416504L108.58 17.0865C120.012 21.4737 130.133 28.5089 138.191 37.441L149.488 19.7214L136.77 22.9699L134.347 10.069L121.629 13.3174ZM127.816 34.2968C122.696 29.911 116.953 26.2315 110.739 23.4093L127.816 34.2968Z" fill="#5F79D3"/>
<path d="M80.9995 89.2799V43.1999" stroke="white" stroke-width="7" stroke-linecap="round"/>
<path d="M127.08 89.2801H80.9995" stroke="white" stroke-width="7" stroke-linecap="round"/>
</svg>
