<svg width="25" height="26" viewBox="0 0 25 26" fill="none" xmlns="http://www.w3.org/2000/svg">
<path fill-rule="evenodd" clip-rule="evenodd" d="M0 2.94165C0 1.83708 0.895431 0.94165 2 0.94165H22.3755C23.48 0.94165 24.3755 1.83708 24.3755 2.94165V23.3171C24.3755 24.4217 23.48 25.3171 22.3755 25.3171H2C0.895429 25.3171 0 24.4217 0 23.3171V2.94165ZM16.9998 9C16.9998 11.7614 14.7612 14 11.9998 14C9.2384 14 6.99982 11.7614 6.99982 9C6.99982 6.23858 9.2384 4 11.9998 4C14.7612 4 16.9998 6.23858 16.9998 9ZM11.9999 15C7.25905 15 3.37436 18.0851 3.02539 22H20.9744C20.6254 18.0851 16.7407 15 11.9999 15Z" fill="#5F79D3"/>
</svg>
