<svg width="17" height="17" viewBox="0 0 24 24" fill="none" xmlns="http://www.w3.org/2000/svg">
<path fill-rule="evenodd" clip-rule="evenodd" d="M18.6432 16.9609C21.7024 13.0707 21.4387 7.41944 17.852 3.83281C13.9808 -0.03849 7.70414 -0.03849 3.83284 3.83281C-0.0384523 7.7041 -0.0384523 13.9807 3.83284 17.852C7.41947 21.4386 13.0707 21.7024 16.9609 18.6432L21.497 23.1793L23.1793 21.497L18.6432 16.9609ZM16.1699 5.5151C19.1121 8.45729 19.1121 13.2275 16.1699 16.1697C13.2277 19.1119 8.45749 19.1119 5.51531 16.1697C2.57312 13.2275 2.57312 8.45729 5.51531 5.5151C8.45749 2.57292 13.2277 2.57292 16.1699 5.5151Z" fill="#C4C4C4"/>
</svg>
