<svg width="25" height="25" viewBox="0 0 34 34" fill="none" xmlns="http://www.w3.org/2000/svg">
<path fill-rule="evenodd" clip-rule="evenodd" d="M22.6432 20.9609C25.7024 17.0707 25.4387 11.4194 21.852 7.83281C17.9808 3.96151 11.7041 3.96151 7.83284 7.83281C3.96155 11.7041 3.96155 17.9807 7.83284 21.852C11.4195 25.4386 17.0707 25.7024 20.9609 22.6432L25.497 27.1793L27.1793 25.497L22.6432 20.9609ZM20.1699 9.5151C23.1121 12.4573 23.1121 17.2275 20.1699 20.1697C17.2277 23.1119 12.4575 23.1119 9.51531 20.1697C6.57312 17.2275 6.57312 12.4573 9.51531 9.5151C12.4575 6.57292 17.2277 6.57292 20.1699 9.5151Z" fill="#C4C4C4"/>
</svg>
